# xmcd
# Copyright (C) 1995-1998 Ti Kan
#
# Track frame offsets:
#       150
#       35657
#       61777
#       75102
#       83717
#       111080
#       129429
#       173455
#       207587
#
# Disc length: 3173 seconds
#
# Revision: 0
# Processed by: cddbd v1.5.2PL0 Copyright (c) Steve Scherf et al.
# Submitted via: CD-Import v1.0
#
DISCID=650c6309
DTITLE=Clara Haskil - Peter Rybar - Brahms - Busoni - Mozart Disc 2
DYEAR=1995
DGENRE=
TTITLE0=Langsam
TTITLE1=Presto
TTITLE2=Andante Con Moto
TTITLE3=Alla Marcia, Vivace
TTITLE4=Andante
TTITLE5=Allegro Deciso
TTITLE6=Largo - Allegro
TTITLE7=Andante
TTITLE8=Allegretto
EXTD=
EXTT0=
EXTT1=
EXTT2=
EXTT3=
EXTT4=
EXTT5=
EXTT6=
EXTT7=
EXTT8=
PLAYORDER=
